<svg width="271" height="62" viewBox="0 0 271 62" fill="none" xmlns="http://www.w3.org/2000/svg">
<path d="M222.829 13.9002C223.135 13.9801 223.441 14.0583 224.194 14.4204C226.414 15.0783 228.318 15.1259 229.933 15.8926C233.422 17.5484 238.849 16.4672 239.201 23.3012C239.221 23.6854 238.275 29.9975 243.426 28.731C244.03 29.0914 244.236 29.2988 244.422 29.8819C240.772 31.7961 243.246 35.8795 241.251 38.166C234.883 38.2391 228.845 38.3853 222.609 38.2578C221.019 38.1337 219.627 38.2833 217.82 38.4074C214.683 38.217 211.96 38.0504 209.124 37.6356C208.119 37.3364 207.23 37.2871 206.031 37.2412C204.7 37.0865 203.679 36.9284 202.425 36.466C199.096 36.2858 195.999 36.4099 192.902 36.534L192.73 38.5672C193.885 38.9412 195.039 39.3152 196.616 39.7045C200.416 39.8235 203.793 39.9255 207.317 40.3692C212.986 41.2328 218.504 41.8771 224.037 42.2188C226.051 42.3429 228.103 41.753 230.559 41.4674C233.717 41.8873 236.454 42.3259 239.332 42.9532C240.041 42.6302 240.608 42.1202 241.583 41.5354C245.075 41.8074 248.159 42.1508 250.96 42.6336C249.574 43.2405 248.474 43.708 247.089 44.2996C248.383 45.6086 249.415 46.6507 250.089 47.7846C248.763 47.9512 247.793 48.026 246.639 47.737C244.242 46.3005 242.107 45.629 239.895 49.454C242.67 49.454 244.661 49.454 246.644 49.4625C246.634 49.4693 246.648 49.4489 246.655 49.8365C247.441 50.4247 248.22 50.6253 249.366 50.7698C255.141 50.644 260.547 50.5777 265.948 51.0214C265.961 51.8714 265.98 52.208 266 52.548C266 52.548 265.932 52.4732 265.627 52.4732C264.69 53.1073 264.059 53.7431 263.368 54.7087C264.034 56.4087 264.758 57.7789 265.24 59.1321C264.682 59.2069 264.369 59.297 263.774 59.2188C261.828 59.0964 260.162 59.1423 258.211 59.1083C257.535 59.0862 257.148 59.144 256.468 58.9893C253.604 58.9825 251.034 59.1933 248.051 59.2987C244.14 59.0998 240.642 59.0046 236.881 58.6289C224.536 57.5783 212.455 56.1826 200.373 56.1809C179.462 56.1741 158.55 57.0326 137.272 57.4423C136.164 57.4253 135.422 57.4984 134.507 57.4984C134.334 57.427 134.018 57.2196 133.964 56.9578C133.299 56.5549 132.688 56.4138 131.709 56.2659C130.359 56.2999 129.378 56.3458 128.203 56.1435C126.921 56.0415 125.83 56.186 124.339 56.305C122.063 56.2591 120.187 56.2387 118.142 56.0109C116.995 55.8868 116.02 55.9718 114.642 55.9956C102.157 56.1197 90.0752 56.3016 77.8231 56.2353C76.9025 56.6552 76.153 57.3233 75.4034 57.9897C76.0627 58.3399 76.722 58.6884 77.729 59.0947C79.2775 59.6489 80.4783 60.147 81.6791 60.6434C79.8712 60.7301 78.0634 60.8185 75.4538 60.742C67.2268 60.5499 59.8006 60.4598 52.3764 60.5601C51.3428 60.5737 50.3205 61.5257 49.0941 62C48.6248 61.9065 48.3569 61.915 47.8857 61.6838C45.3777 60.9817 43.073 60.5788 40.7692 60.1759L40.7826 59.4857L46.5177 58.5507L46.5243 57.3403C42.7253 56.7538 38.8141 56.5974 35.1576 55.4669C31.1248 54.2225 27.3258 52.0839 23.4279 50.3363C25.3783 44.9898 23.9505 42.6574 19.0618 43.0467C19.0618 43.0467 18.733 42.7798 18.5801 42.3395C18.0234 41.2243 17.6206 40.5494 17.3071 39.5719C16.8264 38.9769 16.2564 38.6811 15.2703 38.3904C12.9285 38.5332 11.0029 38.6726 9.0763 38.812C8.43315 38.7304 7.79 38.6488 6.8514 38.0946C6.46095 37.1596 6.3669 36.6938 6.48565 36.0393C7.19245 35.5735 7.68265 35.2981 8.36475 35.3712C10.2733 36.0478 11.9909 36.3776 13.7085 36.7074L13.8918 35.6585C12.0622 35.276 10.2315 34.8935 8.40275 34.1404C8.892 32.6138 9.3803 31.4612 10.184 30.3545C12.464 29.2495 12.3243 28.2958 10.0082 27.3234C8.95185 26.8066 8.1586 26.4853 6.53695 25.8274C8.4417 24.821 9.6957 24.158 11.2651 23.4933C13.3627 21.999 13.147 21.0725 10.6343 20.6373C7.8375 20.5183 5.3219 20.4809 2.6714 20.1681C1.691 19.0801 0.8455 18.2675 0 17.4566C2.2021 17.0877 4.40325 16.7188 7.163 16.7477C12.3975 17.7898 17.0724 18.4358 21.7493 19.0818L21.8491 17.4413H11.4656C12.6511 16.5063 13.2468 16.0388 14.2424 15.5611C16.51 15.5713 18.3768 15.5883 20.4972 15.9045C25.4771 15.9555 30.325 18.5769 35.3191 15.4642C37.2467 15.3724 38.7876 15.3163 40.7018 15.4268C42.6826 15.5849 44.2909 15.5747 46.1168 15.8552C48.0263 15.6427 49.7182 15.1412 51.7769 14.5122C54.9385 14.1875 57.7334 13.9903 60.8703 13.9648C66.8619 14.1042 72.5173 14.2062 78.1622 14.0124C88.1923 13.669 98.2167 13.1454 108.243 12.6966C121.091 12.4552 133.94 12.2155 147.521 12.1186C152.441 11.8432 156.626 11.4216 160.811 11C161.908 11.0085 163.006 11.017 164.628 11.289C168.183 11.6358 171.213 11.7191 174.242 11.8041C185.87 12.02 197.497 12.2376 209.829 12.683C214.632 13.2406 218.731 13.5704 222.829 13.9002ZM34.9724 18.055L45.7852 18.7605L45.8176 17.6844C42.3909 17.6844 38.9642 17.6844 34.9724 18.055ZM231.183 44.3659L232.804 44.1568L232.781 43.8355H228.447L228.451 44.371C229.158 44.371 229.864 44.371 231.183 44.3659ZM223.532 44.371L224.767 44.0905L224.649 43.5465C224.13 43.7998 223.61 44.0531 223.532 44.371Z" fill="#6B39A7"/>
<path d="M48.1785 49.0951C47.8726 49.0137 47.5667 48.934 46.8133 48.5649C44.593 47.8945 42.6892 47.8464 41.0741 47.0649C37.5854 45.3772 32.1582 46.4808 31.8047 39.5121C31.7847 39.1203 32.7299 32.6835 27.5792 33.9761C26.9749 33.6087 26.7688 33.3972 26.5834 32.8027C30.233 30.8499 27.7586 26.6865 29.7532 24.3545C36.121 24.2786 42.1592 24.1283 48.395 24.257C49.9844 24.3832 51.3771 24.2304 53.184 24.1034C56.3209 24.2969 59.0436 24.4663 61.8804 24.8887C62.8846 25.1935 63.7738 25.2436 64.9727 25.2902C66.3037 25.4477 67.3249 25.6087 68.579 26.0799C71.9079 26.263 75.0048 26.1358 78.1018 26.0086L78.2734 23.9353C77.1191 23.5541 75.9648 23.173 74.3877 22.7763C70.5877 22.6558 67.2105 22.5525 63.6869 22.1008C58.0171 21.2213 52.4994 20.5654 46.9665 20.2182C44.9525 20.092 42.9006 20.694 40.444 20.9857C37.2861 20.5582 34.5491 20.1115 31.6714 19.4725C30.9618 19.802 30.3948 20.3222 29.4202 20.9187C25.9279 20.6421 22.8442 20.2925 20.0435 19.8008C21.4285 19.1816 22.5285 18.7047 23.9135 18.1011C22.6194 16.7666 21.5875 15.7041 20.9128 14.548C22.239 14.3778 23.209 14.3014 24.3633 14.5958C26.7604 16.0602 28.8951 16.7445 31.107 12.8435C28.3321 12.8441 26.3409 12.8445 24.3582 12.8363C24.3677 12.8293 24.3535 12.8501 24.3468 12.4549C23.561 11.8553 22.782 11.6509 21.6353 11.5038C15.8613 11.6332 10.4548 11.702 5.05399 11.2507C5.04055 10.3839 5.02151 10.0407 5.0015 9.69395C5.0015 9.69395 5.06993 9.77022 5.37486 9.77015C6.31147 9.12335 6.94217 8.47487 7.63266 7.49008C6.96738 5.75669 6.2423 4.35961 5.76043 2.97982C6.31807 2.90342 6.63156 2.81148 7.22627 2.8911C9.17285 3.01551 10.8382 2.96836 12.7895 3.00262C13.465 3.02501 13.8526 2.96599 14.5328 3.1236C17.3961 3.12994 19.9667 2.91445 22.9497 2.80634C26.86 3.00835 30.3588 3.1047 34.1199 3.48702C46.4644 4.55577 58.5458 5.97648 70.6279 5.9757C91.5393 5.97827 112.451 5.09847 133.729 4.67625C134.836 4.69336 135.579 4.61866 136.494 4.61847C136.667 4.69124 136.982 4.90266 137.037 5.16962C137.702 5.58033 138.312 5.72408 139.292 5.8747C140.642 5.83974 141.623 5.79273 142.797 5.99878C144.08 6.10252 145.171 5.95495 146.662 5.83329C148.938 5.87962 150.814 5.90003 152.859 6.1319C154.006 6.2582 154.981 6.17132 156.359 6.14677C168.844 6.01761 180.926 5.82961 193.178 5.89466C194.098 5.46629 194.848 4.78485 195.597 4.10514C194.938 3.74817 194.279 3.39294 193.271 2.97883C191.723 2.41402 190.522 1.90635 189.321 1.40041C191.129 1.31162 192.937 1.2211 195.546 1.29856C203.773 1.49274 211.2 1.58306 218.624 1.47923C219.657 1.46515 220.68 0.49416 221.906 0.0102464C222.375 0.105493 222.643 0.096774 223.114 0.332435C225.622 1.04786 227.927 1.45823 230.231 1.86859L230.218 2.57241L224.483 3.52705L224.476 4.76133C228.276 5.35861 232.187 5.51728 235.843 6.66931C239.876 7.93742 243.676 10.1174 247.574 11.8987C245.624 17.351 247.053 19.7292 251.941 19.3312C251.941 19.3312 252.27 19.6033 252.423 20.0522C252.98 21.1893 253.383 21.8774 253.696 22.8741C254.177 23.4808 254.747 23.7823 255.733 24.0785C258.075 23.9324 260.001 23.7899 261.927 23.6473C262.571 23.7304 263.214 23.8135 264.152 24.3784C264.543 25.3318 264.637 25.8067 264.518 26.4742C263.812 26.9493 263.322 27.2302 262.639 27.1558C260.731 26.4663 259.013 26.1303 257.296 25.7944L257.112 26.864C258.942 27.2537 260.773 27.6433 262.602 28.4109C262.113 29.9677 261.625 31.1432 260.821 32.2719C258.541 33.3991 258.681 34.3716 260.997 35.3627C262.054 35.8895 262.847 36.217 264.469 36.8875C262.564 37.9142 261.31 38.5905 259.741 39.2686C257.644 40.7929 257.859 41.7376 260.372 42.1809C263.169 42.3016 265.685 42.3392 268.335 42.6576C269.316 43.7669 270.161 44.5954 271.007 45.4221C268.805 45.7987 266.604 46.1754 263.844 46.1465C258.61 45.0849 253.934 44.4271 249.258 43.7694L249.158 45.4422L259.542 45.4401C258.356 46.3938 257.761 46.8706 256.765 47.3579C254.497 47.348 252.631 47.3311 250.51 47.0091C245.53 46.9581 240.682 44.286 235.688 47.4611C233.761 47.5552 232.22 47.6127 230.306 47.5004C228.325 47.3396 226.716 47.3503 224.891 47.0647C222.981 47.2818 221.289 47.7935 219.231 48.4354C216.069 48.7671 213.274 48.9688 210.137 48.9955C204.146 48.8546 198.49 48.7517 192.845 48.9505C182.815 49.3028 172.791 49.8388 162.765 50.2986C149.917 50.5474 137.068 50.7945 123.487 50.8962C118.567 51.178 114.383 51.6088 110.197 52.0396C109.1 52.0312 108.002 52.0227 106.38 51.7457C102.825 51.3928 99.7952 51.3085 96.7656 51.2224C85.1376 51.0047 73.5105 50.7852 61.1785 50.3336C56.3762 49.766 52.2769 49.4306 48.1785 49.0951ZM236.035 44.8192L225.222 44.102L225.19 45.1993C228.616 45.1986 232.043 45.1979 236.035 44.8192ZM39.8203 18.0302L38.1987 18.2438L38.2215 18.5714L42.5564 18.5705L42.5516 18.0244C41.8448 18.0246 41.1389 18.0247 39.8203 18.0302ZM47.4707 18.0234L46.2357 18.3097L46.3536 18.8644C46.8732 18.606 47.3928 18.3476 47.4707 18.0234Z" fill="#6B39A7"/>
</svg>
