<svg width="170" height="167" viewBox="0 0 170 167" fill="none" xmlns="http://www.w3.org/2000/svg">
<path d="M72.5918 40.1345C76.1953 37.4982 77.7841 32.9751 82.2395 31.3148C83.5378 30.831 84.7828 30.6672 86.1614 30.8548C92.8261 31.7622 95.1527 40.0183 99.1639 41.0913C101.463 41.7064 104.394 40.5799 106.665 40.08C110.628 39.2076 114.929 39.3974 117.555 42.8492C120.527 46.7568 119.014 52.7867 120.977 55.5849C123.35 58.9682 132.272 58.3788 135.032 64.6897C135.667 66.1424 135.85 67.6992 135.606 69.2628C135.396 70.6052 134.86 71.8609 134.111 72.9979C132.35 75.6735 128.541 78.5354 129.535 82.1379C129.809 83.1281 130.395 84.006 131.003 84.827C133.437 88.1093 136.016 90.5307 135.31 94.9611C134.967 97.1075 133.964 98.9545 132.147 100.235C128.174 103.037 120.728 102.979 119.756 108.44C118.966 112.882 120.035 117.682 115.729 120.713C113.407 122.347 111.251 122.539 108.467 122.076C105.014 121.503 100.703 119.468 97.4685 121.721C96.046 122.712 95.0772 124.317 94.0072 125.642C91.4774 128.779 87.8585 131.264 83.6075 130.572C76.7391 129.454 75.3571 121.662 70.2536 120.794C67.2483 120.283 64.3671 121.717 61.4579 122.158C60.2571 122.341 59.1181 122.269 57.9149 122.204C57.3122 122.045 56.8696 121.939 56.2981 121.699C56.2685 121.694 56.2382 121.691 56.2095 121.683C55.1955 121.372 54.165 120.503 53.4393 119.769C48.6534 114.923 51.8466 110.096 49.4072 106.32C46.7082 102.142 39.1418 103.269 36.04 98.0473C35.2417 96.7031 34.7645 95.228 34.7305 93.6698C34.6237 88.7716 38.8909 86.6138 40.0071 82.3641C41.0276 78.4784 37.7766 75.8027 35.9415 72.78C34.5857 70.5465 34.1929 68.3165 34.8716 65.7825C36.4057 60.0557 42.0945 59.8289 46.4604 57.3262C51.1418 54.6428 49.7327 50.6574 50.9089 46.294C51.4114 44.4299 52.3681 43.0532 53.8336 41.7767C57.3249 38.7355 61.0211 39.6103 65.1501 40.6353C66.7814 41.0403 68.5155 41.4147 70.1976 41.1011C71.0896 40.9347 71.812 40.5754 72.5918 40.1345ZM66.5952 77.6327C64.7082 77.302 62.7643 77.7173 61.1885 78.7879C59.6229 79.867 58.4629 81.4503 58.148 83.3177C57.6221 86.4372 59.9866 88.9832 62.1526 90.9294C62.3608 91.1174 63.0922 91.7642 63.225 91.9677L69.0694 97.4444C70.0266 98.3362 70.9949 99.1994 72.0849 99.9195C75.0747 101.896 79.0531 101.685 81.8728 99.5094C83.7112 98.0904 85.2175 96.4818 86.8374 94.8439C88.5859 93.0775 90.3477 91.3241 92.1227 89.5828C96.396 85.4104 100.64 81.209 104.854 76.9784C106.632 75.2121 108.564 73.4502 110.282 71.6727C111.941 69.956 113.447 67.7205 113.287 65.2748C113.218 63.6073 112.661 61.9573 111.334 60.8305C108.631 58.5376 105.089 58.498 102.352 60.7549C100.935 61.9239 99.8035 63.122 98.5601 64.4139C97.1832 65.8399 95.7922 67.2534 94.3888 68.6543L85.7898 77.1196C83.7974 79.0697 81.7878 81.004 79.8091 82.9678C78.8302 83.9393 77.9481 84.9962 77.0206 86.0133C73.8541 83.4226 70.5413 78.7289 66.5952 77.6327Z" fill="url(#paint0_linear_14_53)"/>
<path d="M56.2981 121.699C56.2685 121.694 56.2382 121.691 56.2095 121.683C55.1955 121.372 54.165 120.503 53.4393 119.769C48.6534 114.922 51.8466 110.096 49.4072 106.32C46.7082 102.142 39.1418 103.268 36.04 98.0472C35.2417 96.7031 34.7645 95.2279 34.7305 93.6698C34.6237 88.7716 38.8909 86.6137 40.0071 82.364C41.0276 78.4783 37.7766 75.8027 35.9415 72.7799C34.5857 70.5465 34.1929 68.3165 34.8716 65.7824C36.4057 60.0556 42.0944 59.8289 46.4604 57.3262C51.1418 54.6427 49.7327 50.6573 50.9089 46.2939C51.4114 44.4299 52.3681 43.0531 53.8336 41.7766C57.3249 38.7354 61.0211 39.6102 65.1501 40.6353C66.7814 41.0402 68.5154 41.4147 70.1976 41.101C71.0896 40.9346 71.812 40.5753 72.5918 40.1345L72.7816 40.2445C72.714 40.6268 72.6338 40.5597 72.4053 40.8468C72.4561 41.0942 72.4404 41.0845 72.6154 41.2654L73.1796 41.1925C73.2105 41.4878 72.2032 44.2421 72.0234 44.6336C71.6579 45.4292 72.1316 49.622 72.015 49.9291C71.5589 51.1303 69.4098 52.1039 69.1619 54.1143C68.5606 54.436 68.8437 54.7857 68.7036 55.4538C68.1807 57.9463 69.2498 60.464 69.1518 62.9388C69.1345 63.3765 68.3609 63.6877 67.9667 63.6913C67.7658 63.5665 67.7068 63.554 67.4723 63.5108C66.6531 62.7109 67.7987 61.5706 66.9365 60.7252L66.8109 60.7283C66.5812 61.3254 66.5855 62.7771 66.4518 63.3729C66.2059 64.469 65.7296 65.6794 65.5792 66.8162C65.4913 67.4807 65.6896 68.3503 65.6597 69.0549C65.6394 69.5339 65.4268 70.5002 65.4557 70.9148L65.5895 71.0282L65.6669 70.9918C66.9494 72.2098 66.4765 72.2214 66.6372 73.9142C66.7102 74.6832 66.1794 76.8237 66.3976 77.3613C66.5932 77.3808 67.0586 77.3996 67.175 77.5162L67.0408 77.5773L67.1583 77.5261L66.9742 77.6149L66.906 77.4939L66.8576 77.6307L66.5952 77.6327C64.7082 77.3019 62.7643 77.7172 61.1885 78.7878C59.6229 79.867 58.4629 81.4503 58.148 83.3176C57.6221 86.4372 59.9866 88.9831 62.1526 90.9294C62.3608 91.1173 63.0922 91.7642 63.225 91.9676C63.3542 92.5396 64.1507 92.9936 64.6307 93.7479L64.5083 93.8496L64.358 93.8325L64.265 93.6747C64.1216 93.7861 63.9767 93.8854 63.8195 93.9765C63.2691 93.8927 63.1842 93.8252 62.7304 93.5347C62.5195 93.6429 62.52 93.669 62.3593 93.8488C62.0984 93.8724 61.8846 93.8602 61.6655 93.9692C61.6413 94.6779 62.0401 95.1856 61.6726 95.9797C61.6321 96.0668 62.2703 97.0806 62.3073 97.232C62.4864 98.38 62.469 99.8324 61.5211 100.679C61.1754 100.987 60.9366 101.036 60.5635 101.273C60.0981 101.875 59.1482 102.706 59.0782 103.434L59.0017 103.316C58.8769 103.487 58.9313 103.406 58.9515 103.702C59.0746 103.739 59.0095 103.74 59.1443 103.67C59.224 103.88 59.276 105.8 59.2904 106.15C59.2605 106.18 58.9619 106.377 58.9877 106.281C58.8539 106.776 58.3129 107.518 58.1616 107.942C57.6748 109.306 57.6452 112.014 57.8058 113.416C57.9964 113.494 57.899 113.475 58.1054 113.44C58.0884 113.508 58.0375 113.753 58.0036 113.791C57.8169 114.592 57.6482 115.595 57.468 116.418C57.4659 116.743 57.6679 116.856 57.5306 117.191C57.2448 117.888 56.9586 118.507 56.5177 119.122C56.2318 119.52 55.761 119.992 55.8095 120.48C56.2147 121.077 57.2193 120.699 56.8029 121.524C56.9449 121.648 56.8598 121.607 57.0631 121.636L57.0619 121.736C57.2698 121.628 57.3426 121.609 57.4648 121.401C57.8348 121.383 58.1025 121.712 58.0786 122.032L57.9149 122.204C57.3122 122.045 56.8696 121.939 56.2981 121.699Z" fill="url(#paint1_linear_14_53)"/>
<path d="M58.3937 110.462C58.5323 110.788 58.4802 111.527 58.4758 111.91C58.3387 111.584 58.3895 110.844 58.3937 110.462Z" fill="url(#paint2_linear_14_53)"/>
<path d="M76.4363 85.7017C69.9187 78.267 66.4467 75.9724 60.9363 78.9204C58.4585 81.1942 58.1362 82.685 57.9363 85.4204C61.8355 91.6591 65.2972 94.3214 70.9363 99.4204C73.655 101.363 75.2913 101.746 78.4363 100.92C98.4121 90.0408 98.9965 82.2968 110.436 71.4204C112.732 68.5487 113.203 67.0396 113.436 64.4204C111.6 60.1968 108.824 59.5289 104.936 59.2017C89.9363 70.2017 85.8223 75.0452 76.4363 85.7017Z" fill="url(#paint3_linear_14_53)" stroke="url(#paint4_linear_14_53)"/>
<path d="M109.219 60.03V100.811C109.219 102.803 107.585 104.42 105.573 104.42H83.9398C84.9967 104.075 86.0148 103.662 86.9845 103.158C90.0874 101.55 92.5067 99.3084 94.2423 96.4332C95.978 93.558 96.8458 90.2748 96.8458 86.5884C96.8458 82.902 95.9974 79.6284 94.3005 76.7532C94.3005 76.7484 94.2957 76.7484 94.2957 76.7436C93.8642 76.0092 93.3842 75.318 92.8606 74.6652C91.3382 72.7644 89.4329 71.2188 87.1493 70.0188C84.0804 68.4108 80.5896 67.6044 76.6819 67.6044H60.736V60.03C60.736 58.038 62.3699 56.4204 64.3819 56.4204H105.573C107.585 56.4204 109.219 58.038 109.219 60.03Z" fill="white"/>
<path d="M88.022 86.6412C88.022 88.9212 87.5469 90.9468 86.6015 92.718C85.6512 94.4892 84.3277 95.8716 82.6259 96.8652C80.929 97.8636 79.0188 98.358 76.905 98.358H69.0702C68.789 95.358 67.8775 89.9868 64.4595 84.2988C61.6281 79.5852 58.2101 76.542 55.9363 74.8188H64.571C65.9382 76.11 67.4703 77.8476 68.8229 80.094C68.9054 80.2332 68.9878 80.3724 69.0702 80.5116C71.3974 84.5772 72.0373 88.3644 72.241 90.5196C72.241 88.8396 72.4785 84.3324 75.659 80.094C77.2007 78.0444 79.0237 76.5948 80.8321 75.5676C81.3751 75.774 81.9035 76.0188 82.4078 76.3116C83.6392 77.0172 84.6816 77.9244 85.5397 79.038C85.9034 79.494 86.2233 79.9884 86.5191 80.5116C86.747 80.9244 86.9506 81.3468 87.1251 81.7788C87.7215 83.262 88.022 84.8796 88.022 86.6412Z" fill="white"/>
<defs>
<linearGradient id="paint0_linear_14_53" x1="85.1279" y1="30.7791" x2="85.1279" y2="130.688" gradientUnits="userSpaceOnUse">
<stop stop-color="#623FFE"/>
<stop offset="1" stop-color="#6B39A7"/>
</linearGradient>
<linearGradient id="paint1_linear_14_53" x1="53.863" y1="39.6794" x2="53.863" y2="122.204" gradientUnits="userSpaceOnUse">
<stop stop-color="#623FFE"/>
<stop offset="1" stop-color="#6B39A7"/>
</linearGradient>
<linearGradient id="paint2_linear_14_53" x1="58.435" y1="110.462" x2="58.435" y2="111.91" gradientUnits="userSpaceOnUse">
<stop stop-color="#623FFE"/>
<stop offset="1" stop-color="#6B39A7"/>
</linearGradient>
<linearGradient id="paint3_linear_14_53" x1="85.6863" y1="59.2017" x2="85.6863" y2="101.33" gradientUnits="userSpaceOnUse">
<stop stop-color="#623FFE"/>
<stop offset="1" stop-color="#6B39A7"/>
</linearGradient>
<linearGradient id="paint4_linear_14_53" x1="85.6863" y1="59.2017" x2="85.6863" y2="101.33" gradientUnits="userSpaceOnUse">
<stop stop-color="#623FFE"/>
<stop offset="1" stop-color="#6B39A7"/>
</linearGradient>
</defs>
</svg>
