<svg width="363" height="105" viewBox="0 0 363 105" fill="none" xmlns="http://www.w3.org/2000/svg">
<path d="M0 0H323.747C345.286 0 362.747 17.4609 362.747 39V104.478H38.0001C17.0132 104.478 0 87.4645 0 66.4777V0Z" fill="#D9D9D9" fill-opacity="0.2"/>
<g clip-path="url(#clip0_6_78)">
<path d="M85.1072 32.2139V72.0202C85.1072 73.9646 83.5237 75.5436 81.5736 75.5436H60.6071C61.6315 75.2062 62.6182 74.8033 63.558 74.3113C66.5653 72.7418 68.9101 70.5537 70.5923 67.7472C72.2745 64.9407 73.1156 61.736 73.1156 58.1377C73.1156 54.5394 72.2933 51.344 70.6487 48.5375C70.6487 48.5328 70.644 48.5328 70.644 48.5281C70.2258 47.8113 69.7606 47.1366 69.2531 46.4994C67.7776 44.644 65.931 43.1353 63.7178 41.964C60.7434 40.3944 57.3602 39.6073 53.5729 39.6073H38.1182V32.2139C38.1182 30.2695 39.7017 28.6906 41.6517 28.6906H81.5736C83.5237 28.6906 85.1072 30.2695 85.1072 32.2139Z" fill="white"/>
<path d="M64.5636 58.1892C64.5636 60.4147 64.1032 62.3919 63.1869 64.1208C62.2659 65.8497 60.9831 67.199 59.3338 68.1689C57.6892 69.1434 55.8378 69.626 53.7891 69.626H46.1956C45.9231 66.6977 45.0397 61.4548 41.727 55.9028C38.9828 51.3018 35.6701 48.3313 33.4663 46.6493H41.8351C43.1601 47.9096 44.645 49.6057 45.956 51.7984C46.0359 51.9343 46.1158 52.0702 46.1956 52.2061C48.4511 56.1745 49.0714 59.8712 49.2687 61.9749C49.2687 60.3351 49.499 55.9356 52.5814 51.7984C54.0757 49.7978 55.8425 48.3829 57.5952 47.3802C58.1215 47.5817 58.6336 47.8206 59.1223 48.1064C60.3158 48.7952 61.3261 49.6807 62.1578 50.7677C62.5102 51.2128 62.8204 51.6954 63.107 52.2061C63.3278 52.609 63.5252 53.0213 63.6944 53.443C64.2723 54.8907 64.5636 56.4697 64.5636 58.1892Z" fill="white"/>
<path d="M121.058 36.5254C123.878 37.8227 126.068 39.6299 127.628 41.943C129.188 44.2601 129.968 46.9036 129.968 49.8735C129.968 52.8434 129.169 55.491 127.576 57.804C125.983 60.1212 123.76 61.9284 120.908 63.2216C118.056 64.5189 114.8 65.1675 111.144 65.1675H96.4973V34.5795H111.449C115.039 34.5795 118.244 35.2281 121.063 36.5254H121.058ZM116.905 58.1589C118.465 57.3594 119.682 56.2457 120.556 54.8178C121.43 53.39 121.867 51.7582 121.867 49.9224C121.867 48.0867 121.406 46.4426 120.481 44.9822C119.56 43.5258 118.3 42.3958 116.707 41.5962C115.114 40.7966 113.31 40.3927 111.294 40.3927H104.448V59.3583H111.647C113.592 59.3583 115.345 58.9585 116.905 58.1549V58.1589Z" fill="white"/>
<path d="M154.858 42.9261C157.057 43.9174 158.758 45.3167 159.965 47.1198C161.173 48.927 161.779 51.0239 161.779 53.4145C161.779 55.8051 161.173 57.8652 159.965 59.6847C158.758 61.5041 157.052 62.9197 154.858 63.9233C152.658 64.9268 150.135 65.4327 147.283 65.4327C144.431 65.4327 141.856 64.9309 139.657 63.9233C137.458 62.9197 135.757 61.5041 134.549 59.6847C133.341 57.8652 132.735 55.7724 132.735 53.4145C132.735 51.0565 133.341 48.927 134.549 47.1198C135.757 45.3126 137.458 43.9133 139.657 42.9261C141.856 41.9348 144.398 41.4412 147.283 41.4412C150.168 41.4412 152.658 41.9389 154.858 42.9261ZM142.373 48.825C141.113 50.0203 140.484 51.5787 140.484 53.5001C140.484 55.4216 141.113 56.98 142.373 58.1752C143.632 59.3705 145.267 59.9661 147.278 59.9661C149.289 59.9661 150.878 59.3705 152.137 58.1752C153.396 56.98 154.026 55.4216 154.026 53.5001C154.026 51.5787 153.396 50.0203 152.137 48.825C150.878 47.6298 149.261 47.0341 147.278 47.0341C145.295 47.0341 143.627 47.6298 142.373 48.825Z" fill="white"/>
<path d="M188.483 44.7211C190.748 46.9077 191.88 49.951 191.88 53.8551C191.88 54.5527 191.861 55.0952 191.829 55.4705H172.399C172.836 56.9555 173.672 58.1141 174.917 58.9463C176.158 59.7785 177.652 60.1905 179.395 60.1905C180.669 60.1905 181.895 59.9784 183.07 59.5582C184.245 59.138 185.302 58.5179 186.242 57.702L190.32 61.2838C188.943 62.626 187.275 63.6499 185.311 64.3638C183.347 65.0778 181.157 65.4327 178.742 65.4327C175.89 65.4327 173.399 64.9391 171.266 63.9477C169.133 62.9564 167.493 61.5612 166.332 59.754C165.176 57.9468 164.594 55.8663 164.594 53.5042C164.594 51.1422 165.181 49.0086 166.356 47.1892C167.531 45.3697 169.175 43.9541 171.29 42.9506C173.404 41.947 175.819 41.4412 178.54 41.4412C182.901 41.4412 186.218 42.5345 188.483 44.717V44.7211ZM184.583 51.493C184.517 49.951 183.944 48.7108 182.872 47.7766C181.796 46.8465 180.373 46.3774 178.592 46.3774C176.914 46.3774 175.514 46.8343 174.391 47.7521C173.268 48.67 172.554 49.9143 172.253 51.489H184.588L184.583 51.493Z" fill="white"/>
<path d="M218.382 41.2005C216.756 40.4866 215.116 40.1317 213.477 40.1317C211.498 40.1317 209.685 40.5559 208.04 41.4004C206.395 42.2448 205.103 43.3953 204.163 44.8516C203.224 46.308 202.754 47.9276 202.754 49.7022C202.754 51.4767 203.224 53.1045 204.163 54.5731C205.103 56.0458 206.395 57.2084 208.04 58.0692C209.685 58.93 211.494 59.3583 213.477 59.3583C215.055 59.3583 216.658 59.032 218.284 58.3752C219.909 57.7184 221.361 56.8372 222.639 55.7317L227.32 60.1457C225.44 61.8346 223.231 63.1767 220.699 64.168C218.166 65.1594 215.624 65.653 213.072 65.653C209.614 65.653 206.48 64.9595 203.661 63.5765C200.841 62.1936 198.628 60.2925 197.016 57.8734C195.405 55.4542 194.601 52.7618 194.601 49.7878C194.601 46.8139 195.423 44.1785 197.068 41.792C198.713 39.4014 200.968 37.5249 203.839 36.1542C206.71 34.7834 209.887 34.1022 213.378 34.1022C215.929 34.1022 218.443 34.5591 220.929 35.477C223.41 36.3948 225.525 37.6391 227.273 39.2138L222.639 44.154C221.432 42.9016 220.013 41.9185 218.387 41.2046L218.382 41.2005Z" fill="white"/>
<path d="M252.811 44.7211C255.076 46.9077 256.208 49.951 256.208 53.8551C256.208 54.5527 256.19 55.0952 256.157 55.4705H236.727C237.164 56.9555 238 58.1141 239.245 58.9463C240.486 59.7785 241.98 60.1905 243.723 60.1905C244.997 60.1905 246.223 59.9784 247.398 59.5582C248.573 59.138 249.63 58.5179 250.57 57.702L254.648 61.2838C253.272 62.626 251.603 63.6499 249.639 64.3638C247.675 65.0778 245.486 65.4327 243.07 65.4327C240.218 65.4327 237.728 64.9391 235.594 63.9477C233.461 62.9564 231.821 61.5612 230.66 59.754C229.505 57.9468 228.922 55.8663 228.922 53.5042C228.922 51.1422 229.509 49.0086 230.684 47.1892C231.859 45.3697 233.503 43.9541 235.618 42.9506C237.732 41.947 240.148 41.4412 242.868 41.4412C247.229 41.4412 250.546 42.5345 252.811 44.717V44.7211ZM248.911 51.493C248.845 49.951 248.272 48.7108 247.201 47.7766C246.125 46.8465 244.701 46.3774 242.92 46.3774C241.242 46.3774 239.842 46.8343 238.719 47.7521C237.596 48.67 236.882 49.9143 236.581 51.489H248.911V51.493Z" fill="white"/>
<path d="M272.72 42.5794C274.229 41.8206 275.991 41.4289 278.006 41.4004V47.7358C277.739 47.7073 277.335 47.691 276.799 47.691C274.417 47.691 272.528 48.2539 271.137 49.3717C269.746 50.4936 269.046 51.9867 269.046 53.851V65.1675H261.292V41.6615H269.046V45.9001C269.985 44.4437 271.212 43.3382 272.72 42.5794Z" fill="white"/>
<path d="M298.992 63.858C297.986 64.3802 296.868 64.7841 295.646 65.0615C294.42 65.3389 293.189 65.4776 291.948 65.4776C289.43 65.4776 287.386 64.8534 285.807 63.597C284.228 62.3446 283.443 60.5537 283.443 58.2202V47.3402H279.67V42.7059H283.443V36.2399H291.145V42.7059H298.494V47.381H291.145V57.082C291.145 58.8892 291.967 59.7908 293.612 59.7908C294.753 59.7908 296.013 59.5011 297.385 58.9178L298.997 63.858H298.992Z" fill="white"/>
<path d="M323.28 42.9261C325.479 43.9174 327.18 45.3167 328.388 47.1198C329.596 48.927 330.202 51.0239 330.202 53.4145C330.202 55.8051 329.596 57.8652 328.388 59.6847C327.18 61.5041 325.475 62.9197 323.28 63.9233C321.081 64.9268 318.558 65.4327 315.706 65.4327C312.854 65.4327 310.279 64.9309 308.079 63.9233C305.88 62.9197 304.179 61.5041 302.972 59.6847C301.764 57.8652 301.158 55.7724 301.158 53.4145C301.158 51.0565 301.759 48.927 302.972 47.1198C304.179 45.3126 305.885 43.9133 308.079 42.9261C310.279 41.9348 312.821 41.4412 315.706 41.4412C318.591 41.4412 321.081 41.9389 323.28 42.9261ZM310.795 48.825C309.536 50.0203 308.906 51.5787 308.906 53.5001C308.906 55.4216 309.536 56.98 310.795 58.1752C312.055 59.3705 313.69 59.9661 315.701 59.9661C317.712 59.9661 319.3 59.3705 320.56 58.1752C321.819 56.98 322.449 55.4216 322.449 53.5001C322.449 51.5787 321.819 50.0203 320.56 48.825C319.3 47.6298 317.684 47.0341 315.701 47.0341C313.718 47.0341 312.05 47.6298 310.795 48.825Z" fill="white"/>
</g>
<defs>
<clipPath id="clip0_6_78">
<rect width="296.736" height="46.853" fill="white" transform="translate(33.4663 28.6906)"/>
</clipPath>
</defs>
</svg>
