<svg width="532" height="457" viewBox="0 0 532 457" fill="none" xmlns="http://www.w3.org/2000/svg">
<g filter="url(#filter0_d_16_241)">
<path d="M104.376 386.2C195.07 433.582 342.121 433.582 432.825 386.2C523.53 338.818 523.519 262.002 432.825 214.62C342.131 167.238 195.07 167.227 104.365 214.62C13.6605 262.013 13.6713 338.818 104.376 386.2Z" fill="#FAFAFA"/>
<path d="M344.491 394.904C362.828 394.904 377.692 387.818 377.692 379.077C377.692 370.336 362.828 363.25 344.491 363.25C326.155 363.25 311.29 370.336 311.29 379.077C311.29 387.818 326.155 394.904 344.491 394.904Z" fill="#F0F0F0"/>
<path d="M84.8691 105.393V159.844C84.8691 161.63 86.1248 162.366 87.6837 161.468L214.101 88.4732C214.919 87.9385 215.6 87.2191 216.089 86.373C216.578 85.5268 216.861 84.5775 216.916 83.6018V29.1074C216.916 27.3213 215.649 26.5851 214.101 27.4836L87.6837 100.478C86.8581 101.015 86.1722 101.741 85.6827 102.596C85.1933 103.45 84.9144 104.409 84.8691 105.393Z" fill="#F0F0F0"/>
<path d="M93.6701 104.538L131.558 82.6709C133.301 81.6641 134.698 82.476 134.698 84.4787V122.551C134.638 123.637 134.323 124.693 133.777 125.634C133.232 126.575 132.471 127.373 131.558 127.964L93.6701 149.842C91.938 150.838 90.5307 150.026 90.5307 148.023V109.972C90.5894 108.883 90.9043 107.823 91.4498 106.879C91.9953 105.935 92.756 105.133 93.6701 104.538Z" fill="#FAFAFA"/>
<path d="M124.349 101.669L113.08 125.03L107.342 121.718C106.791 121.416 106.145 121.34 105.539 121.506C104.934 121.672 104.416 122.066 104.095 122.605L90.5307 145.999V148.045C90.5307 150.047 91.938 150.859 93.6701 149.863L131.558 127.985C132.47 127.393 133.229 126.594 133.774 125.654C134.319 124.713 134.636 123.658 134.698 122.573V109.182L127.12 101.236C126.951 101 126.719 100.815 126.451 100.702C126.183 100.589 125.888 100.553 125.601 100.598C125.314 100.643 125.044 100.767 124.823 100.956C124.602 101.145 124.438 101.392 124.349 101.669Z" fill="#BA68C8"/>
<path d="M96.2248 118.47C98.5659 116.943 100.514 114.886 101.912 112.465C103.309 110.044 104.116 107.328 104.268 104.538C104.268 102.188 103.51 100.489 102.265 99.5796L93.6701 104.538C92.7589 105.13 91.9999 105.929 91.4545 106.869C90.9092 107.81 90.5927 108.865 90.5307 109.95V119.011C92.0138 119.877 94.0056 119.747 96.2248 118.47Z" fill="#BA68C8"/>
<path d="M148.836 76.2513L205.766 43.375C207.065 42.628 208.115 43.1585 208.115 44.5657C208.058 45.3544 207.815 46.1184 207.407 46.7956C206.999 47.4727 206.436 48.044 205.766 48.4628L148.836 81.3283C147.537 82.0753 146.487 81.5448 146.487 80.1376C146.545 79.3508 146.789 78.589 147.197 77.9138C147.605 77.2386 148.166 76.6691 148.836 76.2513Z" fill="#FAFAFA"/>
<path d="M148.836 87.4989L205.766 54.6225C207.065 53.8756 208.115 54.406 208.115 55.8133C208.058 56.6019 207.815 57.3659 207.407 58.0431C206.999 58.7203 206.436 59.2916 205.766 59.7104L148.836 92.5759C147.537 93.3228 146.487 92.7924 146.487 91.396C146.544 90.6073 146.786 89.8433 147.194 89.1661C147.603 88.4889 148.165 87.9177 148.836 87.4989Z" fill="#FAFAFA"/>
<path d="M148.836 98.7462L205.766 65.8807C207.065 65.1337 208.115 65.6641 208.115 67.0606C208.058 67.8492 207.815 68.6132 207.407 69.2904C206.999 69.9676 206.436 70.5389 205.766 70.9577L148.836 103.823C147.537 104.581 146.487 104.051 146.487 102.643C146.544 101.855 146.786 101.091 147.194 100.413C147.603 99.7362 148.165 99.165 148.836 98.7462Z" fill="#FAFAFA"/>
<path d="M148.836 109.994L205.766 77.1281C207.065 76.3812 208.115 76.9116 208.115 78.3189C208.056 79.1057 207.813 79.8675 207.404 80.5427C206.996 81.2179 206.435 81.7874 205.766 82.2052L148.836 115.136C147.537 115.883 146.487 115.352 146.487 113.945C146.535 113.147 146.774 112.372 147.183 111.685C147.591 110.998 148.158 110.418 148.836 109.994Z" fill="#FAFAFA"/>
<path d="M58.4555 276.713V196.812C58.5075 195.836 58.7896 194.886 59.2787 194.039C59.7678 193.192 60.4502 192.473 61.27 191.941L156.879 136.732C158.427 135.833 159.693 136.559 159.693 138.356V218.257C159.639 219.233 159.356 220.182 158.867 221.028C158.378 221.874 157.697 222.594 156.879 223.128L61.27 278.337C59.7112 279.236 58.4555 278.51 58.4555 276.713Z" fill="#F0F0F0"/>
<path d="M58.4555 272.719V276.714C58.4555 278.511 59.7112 279.236 61.27 278.338L156.879 223.129C157.697 222.594 158.378 221.875 158.867 221.028C159.356 220.182 159.639 219.233 159.693 218.257V214.252L58.4555 272.719Z" fill="#BA68C8"/>
<path d="M104.712 200.255L114.455 199.746C115.645 199.681 115.97 200.352 115.18 201.261L103.987 213.992C103.196 214.89 102.558 214.641 102.558 213.451V202.539C102.562 201.956 102.786 201.397 103.186 200.973C103.585 200.55 104.131 200.293 104.712 200.255Z" fill="#BA68C8"/>
<path d="M102.2 220.974C101.033 220.989 99.8822 220.694 98.8662 220.119C96.463 218.723 95.1423 215.789 95.1423 211.957C95.1423 204.141 100.652 194.636 107.429 190.685C110.774 188.747 113.924 188.455 116.349 189.841C118.774 191.226 120.084 194.171 120.084 197.992C120.084 205.819 114.563 215.313 107.797 219.264C106.113 220.313 104.183 220.903 102.2 220.974ZM113.026 189.722C111.175 189.795 109.377 190.351 107.808 191.335C101.237 195.123 95.9 204.379 95.9 211.957C95.9 215.551 97.0908 218.225 99.2559 219.469C101.421 220.714 104.322 220.422 107.429 218.625C114 214.825 119.337 205.635 119.337 197.992C119.337 194.398 118.146 191.735 115.981 190.479C115.075 189.973 114.053 189.711 113.015 189.722H113.026Z" fill="#BA68C8"/>
<path d="M63.7273 122.562L57.8059 119.163C54.9805 117.268 51.051 117.344 46.71 119.855C38.0498 124.835 31.1 137.468 31.1 148.077V150.491C31.1 161.1 45.3677 172.618 45.3677 172.618L51.1917 175.919C51.1917 175.919 47.6951 171.925 48.0957 171.102C51.9603 163.265 62.2984 141.116 62.2984 132.456V130.042C62.3203 128.295 62.0981 126.553 61.6381 124.868L62.2984 125.246L63.7273 122.562ZM46.6992 146.886C42.3691 149.376 38.8942 147.352 38.8942 142.383C41.2108 142.015 47.0456 132.056 46.6992 128.862C51.0293 126.372 54.4934 128.397 54.5042 133.365C54.3575 136.074 53.5744 138.71 52.2183 141.059C50.8622 143.408 48.9713 145.405 46.6992 146.886Z" fill="#BA68C8"/>
<g opacity="0.2">
<path d="M63.7273 122.562L57.8059 119.163C54.9805 117.268 51.051 117.344 46.71 119.855C38.0498 124.835 31.1 137.468 31.1 148.077V150.491C31.1 161.1 45.3677 172.618 45.3677 172.618L51.1917 175.919C51.1917 175.919 47.6951 171.925 48.0957 171.102C51.9603 163.265 62.2984 141.116 62.2984 132.456V130.042C62.3203 128.295 62.0981 126.553 61.6381 124.868L62.2984 125.246L63.7273 122.562ZM46.6992 146.886C42.3691 149.376 38.8942 147.352 38.8942 142.383C41.2108 142.015 47.0456 132.056 46.6992 128.862C51.0293 126.372 54.4934 128.397 54.5042 133.365C54.3575 136.074 53.5744 138.71 52.2183 141.059C50.8622 143.408 48.9713 145.405 46.6992 146.886Z" fill="black"/>
</g>
<path d="M63.7274 122.562C63.6626 122.516 63.5938 122.476 63.5217 122.443C60.7396 120.884 57.0265 121.1 52.9346 123.46C46.7642 127.033 41.4273 134.513 38.8617 142.383C37.8696 145.377 37.3438 148.506 37.3029 151.66V154.107C37.3029 162.28 46.5585 171.763 50.8128 175.692C50.9049 175.775 51.0025 175.851 51.1051 175.919C51.3552 176.073 51.6347 176.172 51.9255 176.21C52.2163 176.249 52.512 176.226 52.7935 176.144C53.075 176.061 53.336 175.92 53.5598 175.731C53.7836 175.541 53.9652 175.307 54.0929 175.043C57.7735 167.465 68.4796 144.862 68.4796 136.072V133.658C68.5446 128.202 66.6935 124.348 63.7274 122.562ZM45.2703 147.546C45.1804 147.032 45.1369 146.51 45.1404 145.988C45.2833 143.278 46.0637 140.64 47.418 138.289C48.7724 135.938 50.6624 133.939 52.9346 132.456C53.3885 132.195 53.8627 131.97 54.3527 131.785C57.99 130.464 60.7396 132.553 60.7396 136.959C60.5938 139.667 59.8109 142.301 58.4546 144.649C57.0984 146.996 55.2071 148.991 52.9346 150.469C49.1132 152.699 45.9306 151.357 45.2703 147.546Z" fill="#BA68C8"/>
<path d="M60.7396 136.97C60.5938 139.678 59.8109 142.312 58.4546 144.66C57.0984 147.007 55.207 149.002 52.9346 150.48C49.1132 152.645 45.9306 151.357 45.2703 147.547C45.7663 147.372 46.2448 147.151 46.6992 146.886C48.9699 145.404 50.8591 143.407 52.2133 141.058C53.5676 138.709 54.3488 136.073 54.4934 133.365C54.4983 132.839 54.4512 132.313 54.3527 131.796C57.9899 130.475 60.7396 132.564 60.7396 136.97Z" fill="#BA68C8"/>
<g opacity="0.2">
<path d="M60.7396 136.97C60.5938 139.678 59.8109 142.312 58.4546 144.66C57.0984 147.007 55.207 149.002 52.9346 150.48C49.1132 152.645 45.9306 151.357 45.2703 147.547C45.7663 147.372 46.2448 147.151 46.6992 146.886C48.9699 145.404 50.8591 143.407 52.2133 141.058C53.5676 138.709 54.3488 136.073 54.4934 133.365C54.4983 132.839 54.4512 132.313 54.3527 131.796C57.9899 130.475 60.7396 132.564 60.7396 136.97Z" fill="black"/>
</g>
<path d="M174.481 271.377C174.481 271.377 178.389 246.479 169.707 225.066C161.025 203.654 149.323 202.333 143.261 205.375C137.198 208.417 141.095 220.292 146.508 228.27C153.718 238.739 165.626 261.277 165.236 281.52L174.481 271.377Z" fill="#BA68C8"/>
<path opacity="0.2" d="M174.481 271.377C174.481 271.377 178.389 246.479 169.707 225.066C161.025 203.654 149.323 202.333 143.261 205.375C137.198 208.417 141.095 220.292 146.508 228.27C153.718 238.739 165.626 261.277 165.236 281.52L174.481 271.377Z" fill="black"/>
<path d="M170.583 272.957C170.486 272.955 170.391 272.932 170.302 272.892C170.214 272.851 170.134 272.794 170.069 272.722C170.003 272.65 169.953 272.566 169.92 272.475C169.888 272.383 169.874 272.286 169.88 272.189C171.309 238.1 154.281 212.65 146.93 207.692C146.85 207.638 146.781 207.568 146.728 207.488C146.674 207.407 146.637 207.317 146.618 207.222C146.6 207.127 146.6 207.029 146.619 206.934C146.638 206.839 146.676 206.749 146.73 206.669C146.784 206.588 146.853 206.52 146.934 206.466C147.015 206.412 147.105 206.375 147.2 206.357C147.295 206.338 147.393 206.338 147.488 206.358C147.582 206.377 147.673 206.414 147.753 206.468C156.413 212.249 172.781 238.273 171.341 272.254C171.338 272.35 171.317 272.444 171.277 272.532C171.237 272.62 171.18 272.699 171.11 272.764C171.039 272.83 170.956 272.88 170.866 272.914C170.776 272.947 170.68 272.962 170.583 272.957Z" fill="white"/>
<path d="M172.943 300.94C171.46 297.216 167.628 293.059 157.788 288.621C147.948 284.183 140.543 278.261 139.179 273.974C138.769 272.79 138.715 271.512 139.025 270.297C139.335 269.083 139.995 267.986 140.922 267.144C140.922 267.144 131.645 266.061 130.476 260.378C129.014 253.212 137.123 252.746 137.123 252.746C137.123 252.746 126.481 237.764 123.656 231.096C120.831 224.427 124.089 224.027 130.952 226.571C137.815 229.115 150.892 241.921 152.917 245.829C152.917 245.829 156.457 241.499 160.267 244.346C164.078 247.193 164.262 255.712 162.01 258.787C163.528 258.504 165.096 258.667 166.524 259.257C167.951 259.847 169.177 260.838 170.053 262.11C173.928 267.187 175.206 279.885 175.206 279.885L172.943 300.94Z" fill="#BA68C8"/>
<path d="M173.636 297.476C173.472 297.474 173.313 297.418 173.183 297.316C173.054 297.215 172.962 297.073 172.922 296.914C167.661 274.992 142.687 240.005 127.174 228.877C127.095 228.821 127.028 228.749 126.977 228.667C126.925 228.585 126.891 228.494 126.875 228.398C126.859 228.303 126.861 228.205 126.883 228.111C126.905 228.016 126.945 227.927 127.001 227.848C127.057 227.769 127.128 227.702 127.21 227.651C127.292 227.6 127.384 227.565 127.479 227.549C127.575 227.533 127.673 227.536 127.767 227.557C127.861 227.579 127.95 227.619 128.029 227.675C143.737 238.944 169.025 274.375 174.362 296.567C174.404 296.758 174.37 296.958 174.267 297.124C174.163 297.29 173.999 297.409 173.809 297.455L173.636 297.476Z" fill="white"/>
<path d="M369.584 76.7385C369.455 76.737 369.329 76.7035 369.216 76.6411L366.174 74.8766C366.09 74.8282 366.017 74.7639 365.958 74.6871C365.899 74.6104 365.856 74.5227 365.83 74.4292C365.805 74.3358 365.799 74.2382 365.811 74.1423C365.824 74.0463 365.855 73.9537 365.904 73.8698C365.952 73.7859 366.016 73.7124 366.093 73.6534C366.17 73.5944 366.257 73.5511 366.351 73.526C366.444 73.5009 366.542 73.4944 366.638 73.507C366.734 73.5195 366.827 73.5509 366.91 73.5992L369.952 75.3637C370.036 75.4119 370.11 75.4763 370.169 75.553C370.228 75.6298 370.271 75.7174 370.297 75.8109C370.322 75.9044 370.328 76.002 370.316 76.098C370.303 76.194 370.271 76.2866 370.223 76.3705C370.158 76.4825 370.065 76.5756 369.953 76.6402C369.841 76.7048 369.714 76.7387 369.584 76.7385Z" fill="white"/>
<path d="M172.943 140.921V301.98C172.943 303.777 174.199 304.502 175.747 303.603L363.609 195.145C364.427 194.611 365.108 193.891 365.597 193.045C366.086 192.199 366.369 191.25 366.423 190.274V29.2156C366.423 27.4186 365.157 26.6933 363.609 27.5918L175.747 136.05C174.93 136.585 174.25 137.304 173.763 138.151C173.276 138.997 172.995 139.946 172.943 140.921Z" fill="#455A64"/>
<path d="M194.93 170.669C194.93 176.288 199.119 178.409 204.304 175.422L353.227 89.4366V69.1284L204.304 155.103C199.119 158.101 194.93 165.062 194.93 170.669Z" fill="#F5F5F5"/>
<path d="M365.893 61.8428C371.067 58.855 375.268 60.9768 375.268 66.5843C375.268 72.1917 371.067 79.1632 365.893 82.151L353.281 89.4364V69.1282L365.893 61.8428Z" fill="#BA68C8"/>
<path d="M361.346 78.9576C360.807 78.9652 360.276 78.8268 359.809 78.557C359.234 78.1721 358.773 77.639 358.476 77.014C358.179 76.389 358.056 75.6954 358.12 75.0063C358.198 73.312 358.681 71.661 359.529 70.1918C360.376 68.7227 361.564 67.4781 362.992 66.5626C363.537 66.118 364.204 65.8499 364.906 65.7939C365.607 65.738 366.309 65.8968 366.917 66.2494C367.526 66.602 368.013 67.1315 368.313 67.7676C368.614 68.4036 368.714 69.1161 368.599 69.8102C368.519 71.504 368.035 73.1539 367.187 74.6227C366.34 76.0914 365.154 77.3364 363.728 78.2539C363.009 78.693 362.188 78.9357 361.346 78.9576ZM365.362 67.3204C364.782 67.3491 364.218 67.5281 363.728 67.84C362.532 68.6343 361.537 69.6946 360.819 70.9379C360.102 72.1812 359.682 73.5737 359.593 75.0063C359.481 75.4375 359.514 75.8933 359.686 76.304C359.858 76.7146 360.161 77.0574 360.546 77.2798C360.932 77.5022 361.38 77.592 361.822 77.5352C362.264 77.4785 362.675 77.2784 362.992 76.9657C364.189 76.1726 365.185 75.1126 365.902 73.8691C366.62 72.6255 367.039 71.2324 367.127 69.7994C367.182 69.3701 367.124 68.9338 366.956 68.5347C366.789 68.1355 366.519 67.7875 366.174 67.5261C365.928 67.3847 365.647 67.3136 365.362 67.3204Z" fill="white"/>
<path d="M368.058 106.291L224.082 189.365C223.261 189.896 222.578 190.615 222.088 191.461C221.599 192.308 221.318 193.259 221.267 194.236V238.544C221.267 240.341 222.523 241.066 224.082 240.167L368.058 157.062C368.878 156.529 369.56 155.81 370.049 154.964C370.538 154.117 370.82 153.167 370.872 152.191V107.915C370.818 106.118 369.563 105.393 368.058 106.291Z" fill="#BA68C8"/>
<path opacity="0.2" d="M368.058 106.291L224.082 189.365C223.261 189.896 222.578 190.615 222.088 191.461C221.599 192.308 221.318 193.259 221.267 194.236V238.544C221.267 240.341 222.523 241.066 224.082 240.167L368.058 157.062C368.878 156.529 369.56 155.81 370.049 154.964C370.538 154.117 370.82 153.167 370.872 152.191V107.915C370.818 106.118 369.563 105.393 368.058 106.291Z" fill="white"/>
<path d="M276.422 166.534L302.511 151.465C303.81 150.718 304.86 151.249 304.86 152.656C304.801 153.443 304.558 154.205 304.15 154.88C303.742 155.555 303.18 156.125 302.511 156.542L276.422 171.611C275.123 172.358 274.073 171.828 274.073 170.42C274.132 169.634 274.375 168.872 274.783 168.197C275.191 167.521 275.753 166.952 276.422 166.534Z" fill="white"/>
<path d="M274.073 180.575C274.073 181.982 275.156 182.512 276.422 181.765L355.284 136.234C355.952 135.814 356.512 135.242 356.918 134.565C357.324 133.888 357.566 133.125 357.622 132.337C357.622 130.941 356.54 130.41 355.284 131.157L276.422 176.688C275.753 177.106 275.191 177.676 274.783 178.351C274.375 179.026 274.132 179.788 274.073 180.575Z" fill="white"/>
<path d="M274.073 190.728C274.073 192.136 275.156 192.666 276.422 191.919L355.284 146.388C355.952 145.967 356.512 145.395 356.918 144.718C357.324 144.042 357.566 143.278 357.622 142.491C357.622 141.095 356.54 140.564 355.284 141.311L276.422 186.842C275.753 187.26 275.191 187.829 274.783 188.505C274.375 189.18 274.132 189.942 274.073 190.728Z" fill="white"/>
<path d="M274.073 200.883C274.073 202.29 275.156 202.82 276.422 202.073L355.284 156.542C355.952 156.122 356.512 155.55 356.918 154.873C357.324 154.196 357.566 153.433 357.622 152.645C357.622 151.249 356.54 150.718 355.284 151.465L276.422 196.996C275.753 197.414 275.191 197.984 274.783 198.659C274.375 199.334 274.132 200.096 274.073 200.883Z" fill="white"/>
<path d="M228.52 191.898L262.468 172.293C264.027 171.406 265.283 172.131 265.283 173.917V208.049C265.23 209.025 264.948 209.975 264.458 210.822C263.969 211.668 263.288 212.387 262.468 212.921L228.52 232.514C226.972 233.413 225.706 232.687 225.706 230.901V196.769C225.758 195.793 226.04 194.843 226.529 193.996C227.018 193.15 227.7 192.431 228.52 191.898Z" fill="white"/>
<path d="M256.016 189.332L245.916 210.268L240.774 207.302C240.278 207.015 239.687 206.938 239.133 207.086C238.579 207.234 238.107 207.596 237.819 208.092L225.706 229.061V230.89C225.706 232.687 226.972 233.413 228.52 232.514L262.468 212.92C263.288 212.388 263.971 211.669 264.46 210.822C264.949 209.976 265.231 209.025 265.283 208.049V196.065L258.452 188.942C258.297 188.743 258.092 188.59 257.857 188.497C257.623 188.405 257.368 188.377 257.119 188.417C256.87 188.457 256.636 188.563 256.443 188.724C256.249 188.885 256.101 189.095 256.016 189.332Z" fill="#BA68C8"/>
<path d="M230.804 204.39C232.903 203.021 234.65 201.176 235.902 199.005C237.155 196.835 237.878 194.4 238.014 191.897C238.086 191.067 237.961 190.231 237.649 189.458C237.336 188.684 236.846 187.996 236.217 187.448L228.52 191.897C227.7 192.43 227.018 193.149 226.529 193.996C226.04 194.842 225.758 195.792 225.706 196.769V204.888C227.016 205.646 228.813 205.537 230.804 204.39Z" fill="#BA68C8"/>
<path d="M368.058 172.293L224.082 255.366C223.262 255.899 222.58 256.618 222.091 257.464C221.601 258.311 221.319 259.261 221.267 260.238V304.578C221.267 306.364 222.523 307.089 224.082 306.202L368.058 223.074C368.878 222.542 369.56 221.823 370.049 220.976C370.538 220.13 370.82 219.179 370.872 218.203V173.917C370.818 172.131 369.563 171.427 368.058 172.293Z" fill="#BA68C8"/>
<path opacity="0.2" d="M368.058 172.293L224.082 255.366C223.262 255.899 222.58 256.618 222.091 257.464C221.601 258.311 221.319 259.261 221.267 260.238V304.578C221.267 306.364 222.523 307.089 224.082 306.202L368.058 223.074C368.878 222.542 369.56 221.823 370.049 220.976C370.538 220.13 370.82 219.179 370.872 218.203V173.917C370.818 172.131 369.563 171.427 368.058 172.293Z" fill="white"/>
<path d="M276.422 232.536L302.511 217.478C303.81 216.731 304.86 217.261 304.86 218.658C304.803 219.446 304.56 220.21 304.152 220.887C303.744 221.565 303.182 222.136 302.511 222.555L276.422 237.613C275.123 238.36 274.073 237.829 274.073 236.433C274.13 235.644 274.373 234.88 274.781 234.203C275.189 233.526 275.751 232.954 276.422 232.536Z" fill="white"/>
<path d="M274.073 246.587C274.073 247.983 275.156 248.514 276.422 247.767L355.284 202.236C355.951 201.816 356.51 201.246 356.916 200.571C357.322 199.896 357.564 199.135 357.622 198.349C357.622 196.942 356.54 196.412 355.284 197.159L276.422 242.69C275.751 243.109 275.189 243.68 274.781 244.357C274.373 245.034 274.13 245.798 274.073 246.587Z" fill="white"/>
<path d="M274.073 256.741C274.073 258.137 275.156 258.668 276.422 257.921L355.284 212.39C355.951 211.97 356.51 211.4 356.916 210.725C357.322 210.05 357.564 209.289 357.622 208.503C357.622 207.096 356.54 206.566 355.284 207.313L276.422 252.844C275.751 253.263 275.189 253.834 274.781 254.511C274.373 255.188 274.13 255.952 274.073 256.741Z" fill="white"/>
<path d="M274.073 266.895C274.073 268.292 275.156 268.822 276.422 268.075L355.284 222.544C355.951 222.124 356.51 221.554 356.916 220.879C357.322 220.204 357.564 219.443 357.622 218.658C357.622 217.251 356.54 216.72 355.284 217.467L276.422 262.998C275.751 263.417 275.189 263.988 274.781 264.665C274.373 265.343 274.13 266.107 274.073 266.895Z" fill="white"/>
<path d="M228.52 257.91L262.468 238.305C264.027 237.407 265.283 238.132 265.283 239.929V274.05C265.233 275.027 264.951 275.978 264.462 276.825C263.973 277.672 263.289 278.39 262.468 278.922L228.52 298.526C226.972 299.425 225.706 298.7 225.706 296.903V262.781C225.758 261.805 226.04 260.855 226.529 260.008C227.018 259.162 227.7 258.443 228.52 257.91Z" fill="white"/>
<path d="M256.016 255.344L245.916 276.28L240.774 273.303C240.528 273.162 240.256 273.07 239.974 273.034C239.692 272.998 239.405 273.017 239.131 273.092C238.856 273.166 238.599 273.294 238.374 273.468C238.149 273.641 237.961 273.858 237.819 274.104L225.706 295.073V296.902C225.706 298.699 226.972 299.425 228.52 298.526L262.468 278.922C263.288 278.391 263.97 277.674 264.46 276.83C264.949 275.985 265.231 275.036 265.283 274.061V262.067L258.452 254.955C258.299 254.752 258.094 254.595 257.859 254.501C257.624 254.406 257.367 254.377 257.117 254.417C256.867 254.457 256.632 254.565 256.438 254.728C256.244 254.891 256.098 255.104 256.016 255.344Z" fill="#BA68C8"/>
<path d="M230.804 270.392C232.903 269.025 234.65 267.182 235.902 265.013C237.155 262.845 237.879 260.411 238.014 257.91C238.086 257.079 237.961 256.243 237.649 255.47C237.336 254.697 236.846 254.009 236.217 253.461L228.52 257.91C227.7 258.443 227.018 259.162 226.529 260.008C226.04 260.855 225.758 261.805 225.706 262.782V270.9C227.016 271.647 228.813 271.539 230.804 270.392Z" fill="#BA68C8"/>
<path d="M366.423 36.1113V29.2156C366.423 27.4186 365.157 26.6933 363.609 27.5918L175.758 136.05C174.938 136.583 174.256 137.302 173.767 138.148C173.277 138.995 172.995 139.945 172.943 140.921V147.828L366.423 36.1113Z" fill="#BA68C8"/>
<path d="M343.376 41.9137C342.771 42.3113 342.267 42.8457 341.906 43.4738C341.545 44.1018 341.337 44.8059 341.298 45.5293C341.298 46.8608 342.229 47.4021 343.376 46.7309C343.985 46.3388 344.493 45.8074 344.856 45.1806C345.219 44.5538 345.428 43.8496 345.466 43.1261C345.466 41.7946 344.535 41.2533 343.376 41.9137Z" fill="#F5F5F5"/>
<path d="M351.658 37.1939C351.05 37.5903 350.544 38.1242 350.181 38.7523C349.818 39.3805 349.608 40.0852 349.568 40.8095C349.568 42.141 350.51 42.6715 351.658 42.0111C352.267 41.6166 352.774 41.0832 353.137 40.4547C353.5 39.8261 353.709 39.1204 353.747 38.3955C353.747 37.0099 352.816 36.4794 351.658 37.1939Z" fill="#F5F5F5"/>
<path d="M359.939 32.3657C359.33 32.7579 358.823 33.2893 358.459 33.9161C358.096 34.5428 357.887 35.247 357.85 35.9705C357.85 37.302 358.781 37.8433 359.939 37.183C360.545 36.7853 361.048 36.2509 361.409 35.6229C361.77 34.9948 361.979 34.2907 362.017 33.5673C362.017 32.2358 361.086 31.6945 359.939 32.3657Z" fill="#F5F5F5"/>
<path d="M369.422 371.932C369.749 372.764 369.975 373.633 370.093 374.52C370.398 375.437 370.469 376.415 370.299 377.367C369.569 378.581 368.41 379.478 367.051 379.878C366.084 380.101 365.081 380.119 364.106 379.933C363.132 379.747 362.206 379.359 361.39 378.796C359.409 377.616 357.925 376.176 355.111 375.386C353.104 374.953 351.213 374.093 349.568 372.863C348.01 371.618 345.931 368.154 348.908 367.353C351.885 366.552 358.369 369.378 364.269 369.637L369.422 371.932Z" fill="#263238"/>
<path d="M369.14 368.035C369.14 368.035 369.487 372.17 369.487 372.679C369.487 374.076 364.334 375.927 363.381 372.679L362.559 368.284L369.14 368.035Z" fill="#F28F8F"/>
<path d="M362.818 277.309C364.59 279.914 366.213 282.617 367.679 285.406C367.679 285.406 368.188 291.425 368.188 295.43C368.188 302.791 367.051 308.475 366.023 322.981C367.697 325.834 368.655 329.051 368.816 332.355C369.249 338.926 369.259 338.85 369.303 369.161C368.317 369.693 367.234 370.023 366.119 370.131C365.003 370.238 363.877 370.122 362.808 369.789L353.065 327.343L351.982 310.683L348.93 289.974L362.818 277.309Z" fill="#37474F"/>
<path d="M339.761 379.521C340.107 379.878 339.988 380.603 340.15 381.794C340.33 382.71 340.378 383.647 340.291 384.576C339.723 385.864 338.697 386.894 337.412 387.467C336.477 387.804 335.484 387.944 334.493 387.879C333.502 387.813 332.535 387.544 331.653 387.088C329.553 386.157 327.896 384.923 325.006 384.479C322.96 384.303 320.977 383.686 319.193 382.671C317.493 381.589 314.993 378.449 317.85 377.258C320.708 376.068 327.875 378.2 333.753 377.724L339.761 379.521Z" fill="#263238"/>
<path d="M341.114 374.325C341.114 374.325 340.031 379.045 339.739 380.095C339.089 382.617 333.493 382.747 333.493 379.835L333.872 373.123L341.114 374.325Z" fill="#F28F8F"/>
<path d="M350.185 278.597C352.989 284.107 355.695 288.968 355.782 294.835C355.988 307.252 350.835 320.924 348.941 329.898C349.505 333.146 349.665 336.451 349.417 339.738C349.038 343.495 340.475 377.627 340.475 377.627C340.475 377.627 335.712 378.623 333.688 376.468L336.091 310.748L336.74 291.663L350.185 278.597Z" fill="#37474F"/>
<path d="M346.332 244.941L348.096 254.716L356.93 254.067L355.078 242.993L346.332 244.941Z" fill="#FFA8A7"/>
<path d="M366.25 253.352C365.373 250.7 362.007 247.81 358.672 248.438C353.664 249.289 348.728 250.519 343.907 252.118C340.822 253.201 338.007 255.896 337.747 266.05L336.784 291.598C338.118 292.784 339.718 293.631 341.449 294.066C346.137 295.354 349.233 296.123 356.356 294.564C365.633 292.54 367.841 286.922 367.841 286.922C367.841 286.922 367.484 273.401 367.203 266.05C366.975 259.804 366.845 255.182 366.25 253.352Z" fill="#455A64"/>
<path d="M342.564 232.46L297.585 220.26C293.515 219.556 291.816 229.494 295.886 230.187L342.077 234.852L342.564 232.46Z" fill="#263238"/>
<path d="M329.628 253.071L320.438 253.352C320.438 253.352 321.823 239.68 322.678 237.883C323.534 236.086 325.58 235.718 327.615 235.144C329.65 234.571 329.639 233.596 329.639 233.596L327.81 233.412C326.207 233.25 325.569 231.247 326.262 229.894C326.597 229.266 327.138 228.27 328.113 228.541L330.538 229.201C330.575 228.131 330.309 227.073 329.769 226.149C328.957 225.25 328.416 225.531 326.792 224.969C325.59 224.546 323.133 223.799 321.152 224.611C319.171 225.423 317.666 229.147 317.158 231.778C316.643 234.82 315.808 237.799 314.668 240.665C312.903 245.537 310.338 255.539 310.067 259.544C309.948 261.396 310.121 262.5 312.178 262.987C314.235 263.474 329.368 263.506 329.368 263.506L329.628 253.071Z" fill="#FFA8A7"/>
<path d="M339.793 233.369C339.793 233.369 337.628 236.53 337.931 236.877C338.42 237.203 338.962 237.441 339.533 237.58L339.793 233.369Z" fill="#FFA8A7"/>
<path d="M346.321 223.388C344.264 224.471 340.713 226.344 339.728 233.878C338.721 241.607 340.053 244.097 341.092 245.125C341.807 245.818 345.639 245.861 347.587 245.277C349.99 244.562 355.414 242.495 357.893 238.522C360.805 233.845 361.454 227.588 358.174 225.099C356.505 223.833 354.542 223.011 352.468 222.712C350.395 222.413 348.28 222.646 346.321 223.388Z" fill="#FFA8A7"/>
<path d="M352.372 316.67L357.059 303.42C360.693 302.132 363.948 299.959 366.532 297.098C366.532 297.098 365.449 300.876 358.045 304.751L352.903 317.287V324.258L352.372 316.67Z" fill="#263238"/>
<path d="M339.306 225.932C339.977 227.783 341.114 232.33 345.855 234.224C345.855 234.224 346.537 231.334 348.962 231.637C351.387 231.94 351.809 235.047 350.315 236.974C348.821 238.901 347.371 238.208 347.371 238.208C347.371 238.208 347.046 242.354 349.817 244.238C350.849 244.846 352.008 245.207 353.202 245.291C354.397 245.376 355.595 245.182 356.702 244.725C358.294 243.999 360.556 240.178 361.877 237.039C364.67 230.414 365.07 225.131 360.794 223.421C360.264 220.411 358.911 219.275 356.183 218.712C350.315 217.51 345.877 221.364 340.951 220.682C338.429 220.325 338.527 223.81 339.306 225.932Z" fill="#263238"/>
<path d="M360.935 224.471L363.706 222.75C363.465 222.412 363.104 222.179 362.697 222.098C362.29 222.017 361.867 222.093 361.514 222.312C361.162 222.531 360.906 222.876 360.798 223.277C360.69 223.678 360.739 224.105 360.935 224.471Z" fill="#263238"/>
<path d="M327.571 252.887C327.571 252.887 340.508 252.14 343.809 252.118C347.111 252.097 350.618 257.737 348.562 261.58C347.198 264.102 342.943 264.968 337.585 265.228C332.226 265.488 326.824 265.488 326.824 265.488C326.824 265.488 322.007 259.999 327.571 252.887Z" fill="#455A64"/>
<path d="M337.747 265.228C337.747 265.228 345.942 265.12 348.627 261.58C348.627 261.58 347.999 263.745 344.816 265.076C342.535 265.953 340.132 266.471 337.693 266.614L337.747 265.228Z" fill="#37474F"/>
<path d="M297.585 220.26C293.515 219.556 291.816 229.494 295.886 230.187L302.381 230.836C299.74 230.565 301.569 221.331 303.583 221.873L297.585 220.26Z" fill="#455A64"/>
<path d="M461.393 217.608C461.394 219.623 460.788 221.591 459.653 223.257C458.518 224.922 456.908 226.206 455.032 226.943C453.156 227.679 451.102 227.833 449.137 227.384C447.173 226.936 445.389 225.905 444.019 224.428L443.358 223.626C441.818 221.572 441.124 219.004 441.422 216.453C441.719 213.902 442.984 211.562 444.956 209.916C446.928 208.271 449.456 207.445 452.019 207.609C454.582 207.773 456.984 208.915 458.73 210.799L459.412 211.621C460.698 213.352 461.393 215.451 461.393 217.608Z" fill="#455A64"/>
<path d="M461.393 217.607C461.394 219.622 460.788 221.591 459.653 223.256C458.518 224.922 456.908 226.206 455.032 226.942C453.156 227.679 451.102 227.833 449.137 227.384C447.173 226.935 445.389 225.905 444.019 224.427L443.358 223.626L401.616 173.213L419.207 163.059L458.73 210.777L459.412 211.599C460.702 213.336 461.397 215.444 461.393 217.607Z" fill="#455A64"/>
<path d="M426.861 203.697C428.614 205.536 431 206.64 433.536 206.787C436.072 206.934 438.569 206.113 440.523 204.489C442.477 202.865 443.741 200.56 444.061 198.04C444.38 195.52 443.73 192.972 442.243 190.913L437.08 184.688C438.623 186.744 439.318 189.314 439.02 191.867C438.722 194.421 437.455 196.762 435.48 198.408C433.505 200.053 430.974 200.877 428.408 200.709C425.843 200.541 423.441 199.394 421.697 197.505L426.861 203.697Z" fill="#BA68C8"/>
<path d="M418.536 83.8073C421.688 84.158 424.734 85.149 427.489 86.7193L414.791 79.3365C406.271 73.48 394.006 73.8264 380.377 81.6856C354.645 96.5487 333.774 132.694 333.774 162.42C333.774 177.024 338.743 187.459 346.938 192.417L347.111 192.525L360.664 200.33C358.261 198.767 356.166 196.774 354.483 194.452C357.822 194.818 361.199 194.624 364.475 193.879C365.666 193.619 366.867 193.305 368.09 192.915C367.93 192.867 367.775 192.805 367.625 192.731C366.973 192.426 366.35 192.064 365.763 191.649C364.697 190.906 363.749 190.008 362.948 188.986C361.854 187.585 360.965 186.036 360.307 184.385C359.425 184.512 358.535 184.577 357.644 184.58C355.537 184.622 353.446 184.204 351.517 183.356C351.066 183.15 350.628 182.915 350.207 182.653C349.828 182.415 349.449 182.133 349.125 181.852C348.342 178.187 347.96 174.449 347.988 170.702C347.988 140.986 368.859 104.83 394.612 89.9669C397.9 88.0488 401.384 86.4883 405.005 85.312C405.98 85.7106 406.898 86.2386 407.733 86.8817C408.617 87.5599 409.413 88.3453 410.103 89.22C411.201 90.6239 412.094 92.1766 412.755 93.8315C413.641 93.7075 414.535 93.646 415.429 93.6475C417.877 93.5818 420.298 94.1684 422.444 95.3471C422.987 95.643 423.505 95.9834 423.992 96.3646C423.797 95.4986 423.592 94.6434 423.343 93.8315C422.365 90.2251 420.736 86.8279 418.536 83.8073Z" fill="#263238"/>
<path d="M427.489 86.7191L426.753 86.3186C424.194 84.9784 421.407 84.1267 418.536 83.8071C415.455 83.4636 412.339 83.606 409.302 84.2293C407.839 84.5066 406.393 84.868 404.972 85.3119C401.352 86.4881 397.868 88.0486 394.58 89.9667C368.827 104.83 347.955 140.986 347.955 170.702C347.928 174.448 348.309 178.187 349.092 181.852C349.233 182.512 349.395 183.14 349.558 183.768C350.522 187.599 352.197 191.216 354.494 194.431C355.52 195.845 356.7 197.141 358.012 198.295C358.849 199.031 359.739 199.704 360.675 200.309C369.173 205.797 381.243 205.321 394.558 197.613C420.312 182.75 441.183 146.604 441.183 116.878C441.172 102.015 435.943 91.5689 427.489 86.7191ZM422.401 95.3794C422.944 95.6753 423.462 96.0157 423.949 96.3969C424.765 97.0599 425.509 97.8074 426.168 98.6269C429.416 102.697 431.137 109.03 431.137 116.911C431.137 142.891 412.084 175.93 389.535 188.953C383.852 192.201 378.385 193.976 373.741 193.976C371.804 193.999 369.882 193.63 368.09 192.893C367.93 192.845 367.775 192.784 367.625 192.709C366.974 192.404 366.35 192.042 365.763 191.627C365.032 191.114 364.358 190.526 363.75 189.873C363.479 189.592 363.219 189.278 362.959 188.964C361.865 187.563 360.976 186.014 360.318 184.363C358.669 179.994 357.882 175.348 358.001 170.68C358.001 170.333 358.001 169.998 358.001 169.597C358.478 143.725 377.324 111.433 399.581 98.5945C400.09 98.3022 400.61 98.0099 401.129 97.7393C404.718 95.7344 408.638 94.3888 412.701 93.7664C413.587 93.6423 414.481 93.5808 415.375 93.5824C417.301 93.5657 419.211 93.9338 420.993 94.6649C421.482 94.8589 421.953 95.0943 422.401 95.3685V95.3794Z" fill="#455A64"/>
<path d="M431.137 116.9C431.137 142.881 412.084 175.919 389.535 188.942C388.167 189.738 386.758 190.461 385.313 191.107C381.707 192.847 377.776 193.814 373.774 193.943C371.836 193.966 369.915 193.598 368.123 192.861C367.963 192.813 367.807 192.751 367.657 192.677C367.006 192.372 366.383 192.01 365.795 191.594C364.73 190.852 363.781 189.954 362.981 188.931C362.699 188.553 362.407 188.184 362.147 187.762C362.656 187.762 363.23 187.838 363.728 187.838C368.372 187.838 373.839 186.095 379.522 182.815C402.038 169.868 421.102 136.873 421.102 110.805C421.102 103.65 419.684 97.8152 416.988 93.7124C418.891 93.8373 420.74 94.3885 422.401 95.3254C422.944 95.6213 423.462 95.9617 423.949 96.3429C424.765 97.0059 425.509 97.7534 426.168 98.5729C429.026 102.156 430.704 107.482 431.05 114.075C431.104 115.027 431.137 115.958 431.137 116.9Z" fill="#37474F"/>
<path opacity="0.6" d="M426.785 113.901C426.785 139.882 407.733 172.921 385.184 185.944C379.5 189.191 374.044 190.967 369.389 190.967C367.456 190.989 365.537 190.621 363.75 189.884C363.479 189.603 363.219 189.289 362.959 188.975C361.865 187.574 360.976 186.025 360.318 184.374C358.669 180.005 357.882 175.359 358.001 170.691C358.001 170.344 358.001 170.009 358.001 169.608C358.478 143.736 377.324 111.444 399.581 98.6054C400.09 98.3131 400.61 98.0208 401.129 97.7502C404.718 95.7453 408.638 94.3998 412.701 93.7773C413.587 93.6533 414.481 93.5918 415.375 93.5933C417.301 93.5767 419.211 93.9447 420.993 94.6758C421.286 94.9681 421.556 95.282 421.816 95.596C425.064 99.6879 426.785 106.021 426.785 113.901Z" fill="white"/>
</g>
<defs>
<filter id="filter0_d_16_241" x="5.72205e-06" y="9.72748e-05" width="531.95" height="456.837" filterUnits="userSpaceOnUse" color-interpolation-filters="sRGB">
<feFlood flood-opacity="0" result="BackgroundImageFix"/>
<feColorMatrix in="SourceAlpha" type="matrix" values="0 0 0 0 0 0 0 0 0 0 0 0 0 0 0 0 0 0 127 0" result="hardAlpha"/>
<feOffset dy="4"/>
<feGaussianBlur stdDeviation="15.55"/>
<feComposite in2="hardAlpha" operator="out"/>
<feColorMatrix type="matrix" values="0 0 0 0 0 0 0 0 0 0 0 0 0 0 0 0 0 0 0.25 0"/>
<feBlend mode="normal" in2="BackgroundImageFix" result="effect1_dropShadow_16_241"/>
<feBlend mode="normal" in="SourceGraphic" in2="effect1_dropShadow_16_241" result="shape"/>
</filter>
</defs>
</svg>
