<svg width="845" height="782" viewBox="0 0 845 782" fill="none" xmlns="http://www.w3.org/2000/svg">
<g filter="url(#filter0_gf_1368_611)">
<path d="M724.367 88.9862L797.55 638.927C801.125 665.79 782.421 690.479 755.814 694.019L469.74 732.088C483.097 725.568 495.82 718.21 507.738 709.707C545.885 682.562 573.855 648.076 591.648 606.249C609.441 564.421 615.025 518.619 608.41 468.907C601.795 419.195 584.7 376.542 557.101 340.756C557.092 340.691 557.028 340.7 557.02 340.635C549.996 331.491 542.408 323.014 534.312 315.132C510.77 292.179 482.799 274.689 450.449 262.525C406.979 246.241 359.37 241.509 307.695 248.386L96.8262 276.447L83.2337 174.304C79.6589 147.442 98.3623 122.753 124.969 119.212L669.677 46.7256C696.284 43.1849 720.793 62.1235 724.367 88.9862Z" fill="#6B39A7" fill-opacity="0.4"/>
<path d="M491.818 485.147C495.91 515.893 493.262 544.045 483.938 569.594C474.55 595.151 459.528 616.122 438.807 632.516C418.159 648.966 393.786 658.995 365.832 662.714L262.225 676.502C253.123 636.541 231.431 565.713 176.024 495.023C130.123 436.442 79.4616 401.418 46.3 382.182L160.486 366.986C180.883 381.993 204.261 402.729 226.18 430.642C227.52 432.374 228.859 434.106 230.199 435.838C268.269 486.569 283.529 536.514 290.089 565.219C287.074 542.564 282.127 481.365 316.58 418.612C333.29 388.259 354.795 365.503 376.866 348.469C384.417 350.296 391.845 352.668 399.038 355.729C416.589 363.077 432.001 373.476 445.348 386.984C450.975 392.493 456.093 398.597 460.943 405.132C464.697 410.298 468.148 415.636 471.231 421.154C481.779 440.106 488.657 461.391 491.818 485.147Z" fill="#6B39A7" fill-opacity="0.4"/>
</g>
<defs>
<filter id="filter0_gf_1368_611" x="4.95911e-05" y="-1.14441e-05" width="844.288" height="778.388" filterUnits="userSpaceOnUse" color-interpolation-filters="sRGB">
<feFlood flood-opacity="0" result="BackgroundImageFix"/>
<feBlend mode="normal" in="SourceGraphic" in2="BackgroundImageFix" result="shape"/>
<feTurbulence type="fractalNoise" baseFrequency="0.25 0.25" numOctaves="3" seed="750" />
<feDisplacementMap in="shape" scale="12.199999809265137" xChannelSelector="R" yChannelSelector="G" result="displacedImage" width="100%" height="100%" />
<feMerge result="effect1_texture_1368_611">
<feMergeNode in="displacedImage"/>
</feMerge>
<feGaussianBlur stdDeviation="23.15" result="effect2_foregroundBlur_1368_611"/>
</filter>
</defs>
</svg>
